<?xml version="1.0" standalone="no"?>
<!DOCTYPE svg PUBLIC "-//W3C//DTD SVG 20010904//EN"
 "http://www.w3.org/TR/2001/REC-SVG-20010904/DTD/svg10.dtd">
<svg version="1.0" xmlns="http://www.w3.org/2000/svg"
 width="670.000000pt" height="373.000000pt" viewBox="0 0 670.000000 373.000000"
 preserveAspectRatio="xMidYMid meet">

<g transform="translate(0.000000,373.000000) scale(0.100000,-0.100000)"
fill="#000000" stroke="none">
<path d="M3233 3446 c-106 -35 -195 -112 -245 -213 -27 -55 -33 -80 -36 -154
l-4 -89 -81 -48 c-44 -26 -118 -83 -165 -127 -135 -128 -216 -263 -269 -450
-24 -86 -25 -108 -33 -460 -9 -390 -15 -452 -66 -628 -51 -182 -148 -385 -250
-526 -58 -80 -65 -108 -36 -134 17 -15 64 -17 470 -17 l452 0 0 -22 c0 -33 45
-125 84 -173 148 -180 445 -180 591 0 38 47 64 95 80 150 l12 40 448 3 c400 2
451 4 467 19 10 9 18 25 18 35 0 11 -32 67 -71 125 -133 200 -222 414 -270
648 -19 96 -23 157 -29 480 -8 355 -9 374 -34 463 -67 241 -219 444 -429 572
l-85 52 -4 88 c-3 73 -9 98 -35 151 -41 82 -110 152 -192 192 -55 27 -76 32
-155 34 -57 2 -107 -2 -133 -11z m213 -113 c102 -35 194 -160 194 -266 0 -33
-3 -38 -17 -32 -105 41 -353 50 -485 17 l-78 -19 0 32 c0 71 30 136 89 196 85
85 187 110 297 72z m119 -398 c277 -76 494 -287 585 -570 22 -65 24 -95 31
-420 7 -372 18 -483 65 -664 37 -141 117 -335 190 -458 35 -59 64 -108 64
-110 0 -2 -517 -3 -1150 -3 -632 0 -1150 3 -1150 6 0 3 13 24 28 47 103 152
204 399 247 607 30 143 37 227 44 575 7 324 10 355 31 420 96 297 329 513 625
579 89 20 302 15 390 -9z m55 -2340 c0 -3 -7 -22 -15 -41 -40 -97 -133 -163
-240 -172 -53 -4 -71 -1 -121 22 -33 15 -70 37 -82 49 -26 24 -66 89 -77 125
l-6 22 270 0 c149 0 271 -2 271 -5z"/>
<path d="M3324 2795 c-10 -25 4 -32 73 -38 159 -15 277 -71 394 -187 66 -66
94 -102 122 -161 59 -120 67 -177 67 -474 0 -293 10 -424 44 -593 43 -209 140
-473 177 -480 30 -5 29 27 -5 105 -38 91 -78 211 -101 303 -43 181 -46 214
-55 585 -5 204 -14 390 -19 415 -57 261 -253 459 -521 526 -76 18 -169 18
-176 -1z"/>
<path d="M1774 2618 c-62 -57 -153 -197 -192 -293 -102 -257 -106 -511 -11
-783 30 -84 90 -205 133 -267 43 -62 140 -177 157 -186 24 -13 63 -11 77 3 27
27 13 64 -49 134 -309 350 -361 851 -125 1202 25 37 59 81 76 99 16 18 35 44
40 58 8 22 6 30 -15 51 -13 13 -29 24 -35 24 -6 0 -31 -19 -56 -42z"/>
<path d="M4830 2640 c-31 -31 -24 -54 40 -127 70 -79 158 -249 187 -358 25
-98 25 -371 0 -465 -53 -194 -127 -330 -259 -479 -65 -74 -64 -131 2 -131 20
0 42 16 82 58 285 300 386 741 258 1122 -45 136 -144 297 -224 368 -43 37 -59
39 -86 12z"/>
<path d="M2074 2383 c-78 -82 -141 -196 -176 -320 -29 -101 -31 -285 -4 -383
21 -76 83 -211 119 -258 82 -108 125 -133 160 -94 27 29 20 55 -28 108 -51 56
-128 205 -145 281 -15 68 -15 214 0 289 21 102 84 223 160 306 34 37 38 68 12
91 -29 27 -59 20 -98 -20z"/>
<path d="M4526 2404 c-25 -25 -19 -56 22 -102 110 -128 162 -267 162 -433 -1
-57 -7 -131 -15 -164 -19 -81 -86 -209 -140 -269 -48 -54 -56 -83 -27 -109 29
-27 58 -20 97 22 85 91 142 194 177 318 31 110 31 286 0 396 -35 122 -93 229
-170 311 -46 49 -78 58 -106 30z"/>
</g>
</svg>
