<?xml version="1.0" standalone="no"?>
<!DOCTYPE svg PUBLIC "-//W3C//DTD SVG 20010904//EN"
 "http://www.w3.org/TR/2001/REC-SVG-20010904/DTD/svg10.dtd">
<svg version="1.0" xmlns="http://www.w3.org/2000/svg"
 width="128.000000pt" height="128.000000pt" viewBox="0 0 128.000000 128.000000"
 preserveAspectRatio="xMidYMid meet">

<g transform="translate(0.000000,128.000000) scale(0.100000,-0.100000)"
fill="#44e0cd" stroke="none">
<path d="M401 1224 c-253 -68 -410 -331 -346 -577 22 -85 61 -154 123 -219
160 -168 417 -194 613 -62 28 19 54 34 58 34 4 0 20 -13 34 -28 24 -25 27 -34
21 -69 -4 -27 -1 -49 9 -69 22 -43 169 -182 200 -189 76 -19 141 46 122 122
-7 31 -146 178 -189 200 -19 10 -42 13 -66 9 -32 -5 -40 -2 -69 28 l-32 33 35
51 c48 71 77 154 83 237 25 322 -286 582 -596 499z m224 -39 c171 -45 298
-183 328 -359 39 -230 -128 -458 -367 -499 -283 -48 -547 216 -499 499 44 256
293 422 538 359z m487 -933 c93 -94 104 -116 68 -152 -36 -36 -58 -25 -152 68
-93 94 -104 116 -68 152 36 36 58 25 152 -68z"/>
<path d="M310 765 c-26 -32 13 -81 48 -59 34 22 22 74 -18 74 -10 0 -23 -7
-30 -15z"/>
<path d="M670 765 c-26 -32 13 -81 48 -59 34 22 22 74 -18 74 -10 0 -23 -7
-30 -15z"/>
<path d="M480 700 c-11 -11 -20 -26 -20 -34 0 -27 22 -29 41 -5 l19 24 19 -24
c19 -24 41 -22 41 5 0 21 -37 54 -60 54 -11 0 -29 -9 -40 -20z"/>
</g>
</svg>
